# xmcd
#
# Track frame offsets:
#	182
#	15120
#	26770
#	41120
#	50337
#	59090
#	69767
#	80910
#	92340
#	103415
#	116045
#	131127
#
# Disc length: 1916 seconds
#
# Revision: 2
# Processed by: cddbd v1.5.1PL0 Copyright (c) Steve Scherf et al.
# Submitted via: audiograbber 1.83.01
#
DISCID=a3077a0c
DTITLE=Williams, Big Joe - The Legacy Of The Blues Vol6
DYEAR=1972
DGENRE=Blues
TTITLE0=I've Been Wrong But I'll Be Right
TTITLE1=Black Gal You're Sure Looking Warm
TTITLE2=When I First Left Home
TTITLE3=Little Annie Mae
TTITLE4=Levee Break Blues
TTITLE5=Hang It Up On The Wall
TTITLE6=Lone Wolf
TTITLE7=This Heavy Stuff Of Mine
TTITLE8=Tell My Mother
TTITLE9=Big Fat Mama
TTITLE10=Back On My Feet
TTITLE11=Jefferson And Franklin Blues
EXTD=
EXTT0=
EXTT1=
EXTT2=
EXTT3=
EXTT4=
EXTT5=
EXTT6=
EXTT7=
EXTT8=
EXTT9=
EXTT10=
EXTT11=
PLAYORDER=
